HIERARCHY
ROOT Hips
{
	OFFSET 0.00000 0.00000 0.00000
	CHANNELS 6 Xposition Yposition Zposition Zrotation Yrotation Xrotation 
	JOINT LHipJoint
	{
		OFFSET 0 0 0
		CHANNELS 3 Zrotation Yrotation Xrotation
		JOINT LeftHip
		{
			OFFSET 1.30186 -1.90722 0.65024
			CHANNELS 3 Zrotation Yrotation Xrotation
			JOINT LeftKnee
			{
				OFFSET 2.56413 -7.04489 0.00000
				CHANNELS 3 Zrotation Yrotation Xrotation
				JOINT LeftAnkle
				{
					OFFSET 2.79321 -7.67428 0.00000
					CHANNELS 3 Zrotation Yrotation Xrotation
					JOINT LeftToe
					{
						OFFSET 0.15723 -0.43198 2.08537
						CHANNELS 3 Zrotation Yrotation Xrotation
						End Site
						{
							OFFSET 0.00000 -0.00000 1.07411
						}
					}
				}
			}
		}
	}
	JOINT RHipJoint
	{
		OFFSET 0 0 0
		CHANNELS 3 Zrotation Yrotation Xrotation
		JOINT RightHip
		{
			OFFSET -1.28627 -1.90723 0.65024
			CHANNELS 3 Zrotation Yrotation Xrotation
			JOINT RightKnee
			{
				OFFSET -2.56567 -7.04913 0.00000
				CHANNELS 3 Zrotation Yrotation Xrotation
				JOINT RightAnkle
				{
					OFFSET -2.75597 -7.57198 0.00000
					CHANNELS 3 Zrotation Yrotation Xrotation
					JOINT RightToe
					{
						OFFSET -0.17500 -0.48081 2.22901
						CHANNELS 3 Zrotation Yrotation Xrotation
						End Site
						{
							OFFSET -0.00000 -0.00000 1.14762
						}
					}
				}
			}
		}
	}
	JOINT lowerback
	{
		OFFSET 0 0 0
		CHANNELS 3 Zrotation Yrotation Xrotation
		JOINT Chest
		{
			OFFSET -0.04522 2.07467 -0.16566
			CHANNELS 3 Zrotation Yrotation Xrotation
			JOINT Chest2
			{
				OFFSET -0.01178 2.08825 -0.05393
				CHANNELS 3 Zrotation Yrotation Xrotation
				JOINT lowerneck
				{
					OFFSET 0 0 0
					CHANNELS 3 Zrotation Yrotation Xrotation
					JOINT Neck
					{
						OFFSET -0.05182 1.80489 0.16014
						CHANNELS 3 Zrotation Yrotation Xrotation
						JOINT Head
						{
							OFFSET 0.14739 1.78840 -0.33342
							CHANNELS 3 Zrotation Yrotation Xrotation
							End Site
							{
								OFFSET 0.04364 1.83899 -0.13460
							}
						}
					}
				}
				JOINT LeftCollar
				{
					OFFSET 0 0 0
					CHANNELS 3 Zrotation Yrotation Xrotation
					JOINT LeftShoulder
					{
						OFFSET 3.01264 1.29090 -0.06579
CHANNELS 3 Zrotation Xrotation Yrotation
						JOINT LeftElbow
						{
OFFSET 0 -5.556800 0.000000
CHANNELS 3 Zrotation Xrotation Yrotation
							JOINT LeftWrist
							{
OFFSET 0 -3.639790 -0.000000
CHANNELS 3 Zrotation Xrotation Yrotation
								JOINT lhand
								{
									OFFSET 0 0 0
CHANNELS 3 Zrotation Xrotation Yrotation
									JOINT LFingers
									{
OFFSET 0 -0.569420 -0.000000
CHANNELS 3 Zrotation Xrotation Yrotation
										End Site
										{
OFFSET 0 -0.459080 -0.000000
										}
									}
								}
								JOINT LThumb
								{
OFFSET 0 0.000000 0.000000
CHANNELS 3 Zrotation Xrotation Yrotation
									End Site
									{
OFFSET 0 -0.466090 0.466090
									}
								}
							}
						}
					}
				}
				JOINT RightCollar
				{
					OFFSET 0 0 0
					CHANNELS 3 Zrotation Yrotation Xrotation
					JOINT RightShoulder
					{
						OFFSET -3.15796 1.37283 -0.36748
CHANNELS 3 Zrotation Xrotation Yrotation
						JOINT RightElbow
						{
OFFSET 0 -5.343390 0.000000
CHANNELS 3 Zrotation Xrotation Yrotation
							JOINT RightWrist
							{
OFFSET 0 -3.651010 -0.000000
CHANNELS 3 Zrotation Xrotation Yrotation
								JOINT rhand
								{
									OFFSET 0 0 0
CHANNELS 3 Zrotation Xrotation Yrotation
									JOINT RFingers
									{
OFFSET 0 -0.694250 -0.000000
CHANNELS 3 Zrotation Xrotation Yrotation
										End Site
										{
OFFSET 0 -0.559720 -0.000000
										}
									}
								}
								JOINT RThumb
								{
OFFSET 0 0.000000 0.000000
CHANNELS 3 Zrotation Xrotation Yrotation
									End Site
									{
OFFSET 0 -0.568270 0.568270
									}
								}
							}
						}
					}
				}
			}
		}
	}
}
MOTION
Frames: 12
Frame Time: 0.008333333333333333
12.458235 13.281943 3.538236 185.067895 -33.564186 179.267948 0.000000 0.000000 0.000000 17.256444 -5.250581 -68.902927 20.964049 19.977692 92.819674 -1.317222 -20.378205 2.535725 0.733302 -5.469686 -15.253433 0.000000 0.000000 0.000000 -7.921682 5.955116 -54.519185 -25.151358 -19.351406 105.219625 -0.163706 -7.506323 -13.732939 -0.090471 -1.805850 4.972475 4.373432 2.478018 45.290567 -3.992236 1.446833 9.736302 -7.029778 -0.487784 -9.862020 -1.254118 23.672544 4.012857 -24.211547 33.073120 7.782602 -5.149354 15.740659 5.858086 0.000000 0.000000 0.000000 12.128756 -29.823725 0.461086 67.199727 -57.941313 40.390888 33.908744 2.444941 -25.734269 0.000000 0.000000 0.000000 -7.125000 0.000000 0.000000 4.933363 60.059472 -1.815351 0.000000 0.000000 0.000000 -42.978867 -29.885427 18.911548 -27.204083 -38.373075 -9.625646 3.162613 -1.399499 -27.538261 0.000000 0.000000 0.000000 7.125000 0.000000 0.000000 19.611766 3.714458 19.500068
12.422290 13.252881 3.527965 184.556760 -33.873527 179.579476 0.000000 0.000000 0.000000 16.566856 -5.367004 -68.914105 20.987959 19.976575 92.889624 -1.356958 -20.839879 1.949360 0.780056 -5.636530 -15.733954 0.000000 0.000000 0.000000 -8.647388 5.630052 -55.072411 -25.180148 -19.344063 105.306476 -0.248372 -6.852040 -14.317131 -0.123582 -2.263212 6.233780 3.768158 2.447500 45.193497 -4.106092 1.128766 9.714060 -6.699307 -0.623299 -9.925899 -1.439526 23.878100 4.333936 -24.534354 33.217664 7.267618 -5.265432 15.881839 5.693576 0.000000 0.000000 0.000000 11.680921 -30.278556 0.479935 66.924877 -57.889020 40.158003 33.667416 3.308451 -25.851969 0.000000 0.000000 0.000000 -7.125000 0.000000 0.000000 4.611061 60.128126 -1.703070 0.000000 0.000000 0.000000 -43.029238 -30.355599 19.170975 -27.253379 -38.419784 -9.656212 3.205569 -1.692894 -27.609655 0.000000 0.000000 0.000000 7.125000 0.000000 0.000000 19.633216 3.648884 19.549373
12.382117 13.226301 3.519842 183.924599 -34.201211 179.892793 0.000000 0.000000 0.000000 15.703493 -5.577540 -68.793475 21.009565 19.975525 92.952840 -1.386964 -21.309966 1.068867 0.831060 -5.814850 -16.248524 0.000000 0.000000 0.000000 -9.468146 5.259487 -55.497185 -25.178379 -19.344505 105.301226 -0.338720 -6.259501 -15.049752 -0.138171 -2.394120 6.596167 3.189931 2.389534 45.193829 -4.264353 0.777209 9.694167 -6.417046 -0.776531 -10.012931 -1.308010 23.989833 4.693560 -25.040690 33.288340 6.855829 -5.460053 15.976331 5.630360 0.000000 0.000000 0.000000 11.252168 -30.722560 0.471425 66.675329 -57.841000 39.946638 33.301327 4.204085 -26.041949 0.000000 0.000000 0.000000 -7.125000 0.000000 0.000000 4.119369 60.244943 -1.532984 0.000000 0.000000 0.000000 -43.119696 -30.823199 19.438924 -27.264265 -38.430007 -9.662954 3.213581 -2.061857 -27.669058 0.000000 0.000000 0.000000 7.125000 0.000000 0.000000 19.635426 3.592907 19.573356
12.347587 13.203498 3.511459 183.367965 -34.482886 180.165309 0.000000 0.000000 0.000000 14.828627 -5.683034 -68.556692 20.998487 19.976081 92.920477 -1.395657 -21.771501 -0.042414 0.785139 -5.651611 -15.778306 0.000000 0.000000 0.000000 -10.083118 5.012063 -55.893919 -25.140020 -19.354323 105.185552 -0.427723 -5.885986 -15.886589 -0.111611 -2.126824 5.857222 2.651549 2.367464 45.291346 -4.399652 0.490458 9.633516 -6.159048 -0.901290 -10.157086 -1.467226 24.136595 5.056179 -25.313156 33.340308 6.373159 -5.585443 16.076293 5.452900 0.000000 0.000000 0.000000 11.303569 -30.987429 0.518605 66.304591 -57.767718 39.633010 33.108600 4.493298 -25.940590 0.000000 0.000000 0.000000 -7.125000 0.000000 0.000000 3.909813 60.083052 -1.440767 0.000000 0.000000 0.000000 -43.107110 -31.122515 19.668286 -27.414744 -38.571315 -9.756811 3.030262 -2.408075 -27.444197 0.000000 0.000000 0.000000 7.125000 0.000000 0.000000 19.540581 3.796713 19.388817
12.314597 13.181726 3.503004 182.831955 -34.751996 180.426683 0.000000 0.000000 0.000000 13.950621 -5.759844 -68.288189 20.978483 19.977076 92.862013 -1.398531 -22.230702 -1.216718 0.712750 -5.395100 -15.039164 0.000000 0.000000 0.000000 -10.641895 4.798267 -56.282996 -25.091669 -19.366701 105.039725 -0.516358 -5.572282 -16.751886 -0.073814 -1.750788 4.817529 2.124049 2.355196 45.415402 -4.528681 0.221403 9.561735 -5.907675 -1.018273 -10.316839 -1.705833 24.292922 5.419616 -25.521758 33.387167 5.871134 -5.691926 16.177748 5.244243 0.000000 0.000000 0.000000 11.486089 -31.203381 0.580992 65.900760 -57.687538 39.291455 32.963214 4.616912 -25.759673 0.000000 0.000000 0.000000 -7.125000 0.000000 0.000000 3.777303 59.845052 -1.369815 0.000000 0.000000 0.000000 -43.066384 -31.375876 19.887111 -27.603342 -38.748420 -9.874457 2.794693 -2.748082 -27.141711 0.000000 0.000000 0.000000 7.125000 0.000000 0.000000 19.419233 4.071460 19.147336
12.288780 13.156719 3.500266 182.512177 -34.950628 180.684282 0.000000 0.000000 0.000000 13.278924 -5.629319 -68.194506 20.953249 19.978232 92.788073 -1.397090 -22.684078 -2.212051 0.507710 -4.485686 -12.460918 0.000000 0.000000 0.000000 -10.946046 4.802644 -56.889276 -25.025145 -19.383393 104.839165 -0.602836 -5.352135 -17.570594 -0.074679 -1.762838 4.850691 1.710597 2.338292 45.444014 -4.621960 0.013982 9.470056 -5.703324 -1.102686 -10.458905 -2.048296 24.450273 5.862805 -25.710624 33.375574 5.221304 -5.816366 16.276129 4.949794 0.000000 0.000000 0.000000 12.345776 -31.182070 0.823483 65.478919 -57.600671 38.935287 32.448778 3.995361 -25.606472 0.000000 0.000000 0.000000 -7.125000 0.000000 0.000000 3.199926 59.545796 -1.140760 0.000000 0.000000 0.000000 -42.908969 -31.606482 19.981805 -27.895203 -39.018380 -10.058105 2.917499 -2.584878 -26.742756 0.000000 0.000000 0.000000 7.125000 0.000000 0.000000 19.505112 4.454322 19.095072
12.262286 13.129060 3.497751 182.204457 -35.146478 180.934075 0.000000 0.000000 0.000000 12.614486 -5.487828 -68.112985 20.934405 19.979090 92.732858 -1.391641 -23.144050 -3.237347 0.311366 -3.548028 -9.811853 0.000000 0.000000 0.000000 -11.249180 4.802986 -57.504030 -24.955922 -19.400650 104.630546 -0.688554 -5.131018 -18.366873 -0.078670 -1.807463 4.973882 1.326376 2.314082 45.456039 -4.718043 -0.191572 9.394513 -5.517685 -1.186751 -10.577028 -2.339278 24.597431 6.320063 -25.957325 33.355885 4.565895 -5.961856 16.372268 4.669353 0.000000 0.000000 0.000000 13.178933 -31.205870 1.049995 65.041876 -57.509865 38.566427 31.930288 3.380963 -25.460082 0.000000 0.000000 0.000000 -7.125000 0.000000 0.000000 2.617994 59.253644 -0.912885 0.000000 0.000000 0.000000 -42.773106 -31.859608 20.047035 -28.181257 -39.282266 -10.238365 3.104364 -2.387449 -26.369572 0.000000 0.000000 0.000000 7.125000 0.000000 0.000000 19.626671 4.815347 19.090227
12.231507 13.088501 3.495651 181.930374 -35.337121 181.145164 0.000000 0.000000 0.000000 11.960831 -5.317078 -68.070767 20.948275 19.978427 92.773528 -1.366608 -23.637842 -4.435246 0.175154 -2.549778 -7.035984 0.000000 0.000000 0.000000 -11.578853 4.755961 -58.134311 -24.875410 -19.420212 104.388292 -0.770723 -4.893405 -19.056391 -0.093535 -1.967327 5.415510 1.074672 2.253795 45.396691 -4.832650 -0.395422 9.402415 -5.420098 -1.273121 -10.577193 -2.359005 24.693305 6.838003 -26.496706 33.302837 3.900856 -6.210741 16.457532 4.469869 0.000000 0.000000 0.000000 13.794792 -31.485535 1.173941 64.530788 -57.400121 38.135684 31.437324 2.895073 -25.344426 0.000000 0.000000 0.000000 -7.125000 0.000000 0.000000 2.068501 59.004759 -0.710582 0.000000 0.000000 0.000000 -42.759899 -32.228571 19.979840 -28.425335 -39.504130 -10.393421 3.568151 -2.080818 -26.137707 0.000000 0.000000 0.000000 7.125000 0.000000 0.000000 19.901528 5.053346 19.299824
12.201043 13.045774 3.491877 181.492785 -35.511038 181.501043 0.000000 0.000000 0.000000 11.160078 -5.202649 -68.053135 20.967345 19.977527 92.829367 -1.279247 -23.952547 -5.952475 0.114193 -2.130477 -5.868264 0.000000 0.000000 0.000000 -12.064271 4.650783 -58.806040 -24.778922 -19.443221 104.098306 -0.849091 -4.557117 -19.636460 -0.116062 -2.183984 6.014872 0.689308 2.237457 45.291778 -4.968650 -0.605556 9.399522 -5.273873 -1.359530 -10.576867 -2.405623 24.792409 7.342824 -26.988532 33.250892 3.259495 -6.443985 16.541339 4.267410 0.000000 0.000000 0.000000 14.390144 -31.784288 1.294163 63.992534 -57.282320 37.682485 31.128354 2.456363 -25.154364 0.000000 0.000000 0.000000 -7.125000 0.000000 0.000000 1.755304 58.719390 -0.588319 0.000000 0.000000 0.000000 -42.772065 -32.591112 19.945228 -28.640750 -39.699242 -10.530550 3.816465 -1.933419 -26.034459 0.000000 0.000000 0.000000 7.125000 0.000000 0.000000 20.047629 5.161132 19.418822
12.171148 12.999135 3.485080 180.760053 -35.654766 182.118284 0.000000 0.000000 0.000000 10.093805 -5.189885 -68.079880 20.995804 19.976201 92.912587 -1.079376 -23.943981 -8.046119 0.189068 -2.756227 -7.603389 0.000000 0.000000 0.000000 -12.830821 4.440634 -59.552586 -24.653595 -19.472453 103.722159 -0.920596 -4.042714 -20.018961 -0.152423 -2.503159 6.898957 0.062673 2.300452 45.104616 -5.143268 -0.827033 9.377142 -5.039852 -1.446010 -10.575651 -2.500778 24.897346 7.823962 -27.394518 33.200938 2.660877 -6.648995 16.622514 4.059582 0.000000 0.000000 0.000000 14.948478 -32.117498 1.407664 63.405244 -57.149975 37.188748 31.151508 2.102817 -24.829995 0.000000 0.000000 0.000000 -7.125000 0.000000 0.000000 1.868639 58.368165 -0.610533 0.000000 0.000000 0.000000 -42.830031 -32.942060 19.969432 -28.804426 -39.846064 -10.635321 3.675831 -2.073444 -26.163378 0.000000 0.000000 0.000000 7.125000 0.000000 0.000000 19.961315 5.033871 19.374284
12.138291 12.964040 3.483209 180.251835 -35.877301 182.514940 0.000000 0.000000 0.000000 9.266307 -5.380662 -67.989232 21.021331 19.974965 92.987316 -0.819494 -23.581424 -10.122479 0.477307 -4.103439 -11.419833 0.000000 0.000000 0.000000 -13.356269 4.349721 -59.969918 -24.474874 -19.512110 103.186950 -1.003462 -3.389100 -20.435638 -0.193164 -2.818284 7.774007 -0.296268 2.231097 44.926852 -5.306464 -1.097582 9.438010 -4.909415 -1.562737 -10.486262 -2.783974 25.014278 8.157943 -27.655342 33.145605 2.004695 -6.791335 16.699307 3.800264 0.000000 0.000000 0.000000 15.551171 -32.511687 1.603870 62.828922 -57.016603 36.704952 31.256640 1.976050 -24.653569 0.000000 0.000000 0.000000 -7.125000 0.000000 0.000000 2.036879 58.199270 -0.657858 0.000000 0.000000 0.000000 -42.919333 -33.448868 20.016237 -28.896398 -39.928464 -10.694192 3.367221 -2.399335 -26.395729 0.000000 0.000000 0.000000 7.125000 0.000000 0.000000 19.775466 4.801304 19.259762
12.102981 12.938510 3.485419 179.929676 -36.165143 182.728791 0.000000 0.000000 0.000000 8.636689 -5.740120 -67.801297 21.044429 19.973805 93.055008 -0.509879 -22.925502 -12.184515 0.942364 -6.048548 -16.961127 0.000000 0.000000 0.000000 -13.681909 4.357623 -60.114419 -24.251905 -19.560406 102.519922 -1.095745 -2.620119 -20.880637 -0.237537 -3.130054 8.641570 -0.433365 2.052058 44.756876 -5.460194 -1.408800 9.567868 -4.864821 -1.704531 -10.323801 -3.223005 25.141152 8.369971 -27.795865 33.085815 1.300809 -6.881738 16.772470 3.498275 0.000000 0.000000 0.000000 16.190626 -32.956409 1.868615 62.261691 -56.882379 36.229395 31.429710 2.037222 -24.599747 0.000000 0.000000 0.000000 -7.125000 0.000000 0.000000 2.250620 58.181477 -0.725992 0.000000 0.000000 0.000000 -43.034603 -34.084841 20.081774 -28.928945 -39.957475 -10.715024 2.919404 -2.879257 -26.713799 0.000000 0.000000 0.000000 7.125000 0.000000 0.000000 19.507130 4.481466 19.087245
